<svg width="75" height="23" viewBox="0 0 75 23" fill="none" xmlns="http://www.w3.org/2000/svg">
<g id="Logo">
<g id="Group 14">
<path id="Kolab" d="M29.8586 19.4218L29.8601 19.4203C31.268 18.0125 31.9737 16.2866 31.9737 14.2626C31.9737 12.2389 31.2681 10.5212 29.8594 9.13038C28.4517 7.7231 26.7261 7.01764 24.7025 7.01764C22.6785 7.01764 20.9526 7.72336 19.5448 9.13117C18.1536 10.5224 17.4575 12.24 17.4575 14.2626C17.4575 16.2853 18.1535 18.0107 19.5433 19.4188L19.5463 19.4218C20.9544 20.8117 22.6799 21.5076 24.7025 21.5076C26.7251 21.5076 28.4505 20.8117 29.8586 19.4218ZM34.2205 20.8133V21.1408H34.5481H37.9282H38.2557V20.8133V1.68542V1.35789H37.9282H34.5481H34.2205V1.68542V20.8133ZM24.7025 17.5511C23.7719 17.5511 23.0101 17.242 22.3939 16.6266C21.797 16.0132 21.4927 15.2341 21.4927 14.2626C21.4927 13.2912 21.797 12.5121 22.3939 11.8987C23.0101 11.2833 23.7719 10.9742 24.7025 10.9742C25.6338 10.9742 26.3961 11.2838 27.0125 11.9002C27.6267 12.5143 27.9385 13.293 27.9385 14.2626C27.9385 15.2323 27.6267 16.011 27.0125 16.6251C26.3961 17.2415 25.6338 17.5511 24.7025 17.5511Z" stroke="#EE7C92" stroke-width="0.655063"/>
<path id="Kolab_2" d="M17.4885 21.1409H18.1421L17.7509 20.6173L10.8503 11.3823L17.487 2.67003L17.8877 2.14403H17.2265H13.0603H12.9L12.8016 2.27065L7.09921 9.61249V2.47156V2.14403H6.77168H3.15573H2.8282V2.47156V20.8133V21.1409H3.15573H6.77168H7.09921V20.8133V13.1889L13.0618 21.0119L13.1601 21.1409H13.3223H17.4885ZM51.5029 7.38453H51.1754V7.71206V8.42462C50.1518 7.48309 48.8287 7.0177 47.2319 7.0177C45.389 7.0177 43.8017 7.73186 42.4858 9.13912L42.4857 9.13923C41.1847 10.5318 40.5371 12.2468 40.5371 14.2627C40.5371 16.2786 41.1847 18.0014 42.4842 19.4108L42.4842 19.4108L42.4873 19.414C43.8036 20.8035 45.3905 21.5077 47.2319 21.5077C48.8287 21.5077 50.1518 21.0423 51.1754 20.1008V20.8133V21.1409H51.5029H54.883H55.2105V20.8133V7.71206V7.38453H54.883H51.5029ZM50.2203 11.8449L50.2202 11.845L50.2261 11.8508C50.8544 12.4633 51.1754 13.2573 51.1754 14.2627C51.1754 15.268 50.8543 16.0726 50.2232 16.7038C49.609 17.3179 48.8304 17.6297 47.8607 17.6297C46.8919 17.6297 46.1137 17.3184 45.4998 16.7053C44.8859 16.0749 44.5723 15.2698 44.5723 14.2627C44.5723 13.2548 44.8863 12.4598 45.4983 11.8479L45.5012 11.8449C46.1159 11.2144 46.8937 10.8957 47.8607 10.8957C48.8278 10.8957 49.6055 11.2144 50.2203 11.8449ZM61.8523 21.1409H62.1798V20.8133V20.1083C63.1906 21.0452 64.5053 21.5077 66.0971 21.5077C67.9551 21.5077 69.5432 20.804 70.8433 19.4124C72.1609 18.0032 72.818 16.2799 72.818 14.2627C72.818 12.2463 72.1613 10.5313 70.8433 9.13925C69.5439 7.73078 67.9559 7.0177 66.0971 7.0177C64.5053 7.0177 63.1906 7.48024 62.1798 8.41707V2.47156V2.14403H61.8523H58.4721H58.1446V2.47156V20.8133V21.1409H58.4721H61.8523ZM67.8278 11.8449L67.8277 11.845L67.8336 11.8508C68.4619 12.4633 68.7828 13.2573 68.7828 14.2627C68.7828 15.268 68.4618 16.0726 67.8307 16.7038C67.2165 17.3179 66.4379 17.6297 65.4682 17.6297C64.4994 17.6297 63.7212 17.3184 63.1073 16.7053C62.4934 16.0749 62.1798 15.2698 62.1798 14.2627C62.1798 13.2548 62.4938 12.4598 63.1058 11.8479L63.1087 11.8449C63.7234 11.2144 64.5012 10.8957 65.4682 10.8957C66.4353 10.8957 67.213 11.2144 67.8278 11.8449Z" stroke="#76B1A6" stroke-width="0.655063"/>
<g id="Kolab_3">
<path d="M52.158 7.71194H55.5381V20.8132H52.158V19.2673C51.1448 20.5424 49.7211 21.18 47.887 21.18C46.1401 21.18 44.6379 20.5162 43.3801 19.1887C42.1399 17.8436 41.5198 16.2016 41.5198 14.2626C41.5198 12.3236 42.1399 10.6903 43.3801 9.3627C44.6379 8.01764 46.1401 7.34511 47.887 7.34511C49.7211 7.34511 51.1448 7.9827 52.158 9.25789V7.71194ZM45.9218 16.9352C46.603 17.6165 47.4677 17.9571 48.5158 17.9571C49.5639 17.9571 50.4286 17.6165 51.1099 16.9352C51.8086 16.2365 52.158 15.3456 52.158 14.2626C52.158 13.1795 51.8086 12.2974 51.1099 11.6161C50.4286 10.9174 49.5639 10.568 48.5158 10.568C47.4677 10.568 46.603 10.9174 45.9218 11.6161C45.2405 12.2974 44.8999 13.1795 44.8999 14.2626C44.8999 15.3456 45.2405 16.2365 45.9218 16.9352Z" fill="#76B1A6"/>
<path d="M66.7522 7.34511C68.5165 7.34511 70.0188 8.01764 71.259 9.3627C72.5167 10.6903 73.1456 12.3236 73.1456 14.2626C73.1456 16.2016 72.5167 17.8436 71.259 19.1887C70.0188 20.5162 68.5165 21.18 66.7522 21.18C64.918 21.18 63.5031 20.5424 62.5074 19.2673V20.8132H59.1272V2.47144H62.5074V9.25789C63.5031 7.9827 64.918 7.34511 66.7522 7.34511ZM63.5293 16.9352C64.2105 17.6165 65.0752 17.9571 66.1233 17.9571C67.1714 17.9571 68.0361 17.6165 68.7174 16.9352C69.4161 16.2365 69.7655 15.3456 69.7655 14.2626C69.7655 13.1795 69.4161 12.2974 68.7174 11.6161C68.0361 10.9174 67.1714 10.568 66.1233 10.568C65.0752 10.568 64.2105 10.9174 63.5293 11.6161C62.848 12.2974 62.5074 13.1795 62.5074 14.2626C62.5074 15.3456 62.848 16.2365 63.5293 16.9352Z" fill="#76B1A6"/>
<path d="M13.9774 20.8132L7.42677 12.2188V20.8132H3.81082V2.47144H7.42677V10.568L13.7154 2.47144H17.9431L11.1646 10.568L12.3608 12.2188L18.7406 20.8132H13.9774Z" fill="#76B1A6"/>
</g>
<g id="Kolab_4">
<path d="M30.2835 19.1887C28.9385 20.5163 27.2964 21.1801 25.3575 21.1801C23.4185 21.1801 21.7764 20.5163 20.4314 19.1887C19.1038 17.8437 18.44 16.2016 18.44 14.2626C18.44 12.3237 19.1038 10.6904 20.4314 9.36277C21.7764 8.0177 23.4185 7.34517 25.3575 7.34517C27.2964 7.34517 28.9385 8.0177 30.2835 9.36277C31.6286 10.6904 32.3011 12.3237 32.3011 14.2626C32.3011 16.2016 31.6286 17.8437 30.2835 19.1887ZM22.8158 16.8567C23.4971 17.538 24.3443 17.8786 25.3575 17.8786C26.3706 17.8786 27.2178 17.538 27.8991 16.8567C28.5804 16.1754 28.921 15.3107 28.921 14.2626C28.921 13.2145 28.5804 12.3499 27.8991 11.6686C27.2178 10.9873 26.3706 10.6467 25.3575 10.6467C24.3443 10.6467 23.4971 10.9873 22.8158 11.6686C22.152 12.3499 21.8201 13.2145 21.8201 14.2626C21.8201 15.3107 22.152 16.1754 22.8158 16.8567Z" fill="#EE7C92"/>
<path d="M35.2031 20.8133V1.68542H38.5832V20.8133H35.2031Z" fill="#EE7C92"/>
</g>
</g>
</g>
</svg>
